<?xml version="1.0" encoding="UTF-8" standalone="no"?>
<svg width="210px" height="412px" viewBox="0 0 210 412" version="1.1" xmlns="http://www.w3.org/2000/svg" xmlns:xlink="http://www.w3.org/1999/xlink" xmlns:sketch="http://www.bohemiancoding.com/sketch/ns">
    <!-- Generator: Sketch 3.4.2 (15857) - http://www.bohemiancoding.com/sketch -->
    <title>Page 1</title>
    <desc>Created with Sketch.</desc>
    <defs></defs>
    <g id="Page-1" stroke="none" stroke-width="1" fill="none" fill-rule="evenodd" sketch:type="MSPage">
        <g sketch:type="MSLayerGroup" transform="translate(1.000000, 1.000000)">
            <path d="M1.9087,388 L1.9087,23.231 C1.9087,14.947 8.5427,7.182 16.7587,6.125 C35.1817,3.754 68.4967,0.231 103.7487,0.231 C139.0007,0.231 172.3157,3.754 190.7397,6.125 C198.9557,7.182 205.5897,14.947 205.5897,23.231 L205.5897,388 C205.5897,393.522 201.3517,400.459 195.9947,401.804 C181.8637,405.35 151.8067,410 103.7487,410 C55.6907,410 25.6347,405.35 11.5037,401.804 C6.1467,400.459 1.9087,393.522 1.9087,388" id="Fill-1" fill="#1E1E1E" sketch:type="MSShapeGroup"></path>
            <path d="M1.9087,388 L1.9087,23.231 C1.9087,14.947 8.5427,7.182 16.7587,6.125 C35.1817,3.754 68.4967,0.231 103.7487,0.231 C139.0007,0.231 172.3157,3.754 190.7397,6.125 C198.9557,7.182 205.5897,14.947 205.5897,23.231 L205.5897,388 C205.5897,393.522 201.3517,400.459 195.9947,401.804 C181.8637,405.35 151.8067,410 103.7487,410 C55.6907,410 25.6347,405.35 11.5037,401.804 C6.1467,400.459 1.9087,393.522 1.9087,388 L1.9087,388 Z" id="Stroke-3" stroke="#B2B2B2" stroke-width="2" sketch:type="MSShapeGroup"></path>
            <path d="M108.3916,20.5254 C108.3916,23.2364 106.1946,25.4334 103.4836,25.4334 C100.7726,25.4334 98.5756,23.2364 98.5756,20.5254 C98.5756,17.8144 100.7726,15.6174 103.4836,15.6174 C106.1946,15.6174 108.3916,17.8144 108.3916,20.5254" id="Fill-9" fill="#7A7A7A" sketch:type="MSShapeGroup"></path>
            <path d="M108.3916,20.5254 C108.3916,23.2364 106.1946,25.4334 103.4836,25.4334 C100.7726,25.4334 98.5756,23.2364 98.5756,20.5254 C98.5756,17.8144 100.7726,15.6174 103.4836,15.6174 C106.1946,15.6174 108.3916,17.8144 108.3916,20.5254 L108.3916,20.5254 Z" id="Stroke-11" stroke="#111111" sketch:type="MSShapeGroup"></path>
            <path d="M37.3242,21.1387 C37.3242,22.2117 36.4542,23.0817 35.3812,23.0817 C34.3082,23.0817 33.4382,22.2117 33.4382,21.1387 C33.4382,20.0657 34.3082,19.1957 35.3812,19.1957 C36.4542,19.1957 37.3242,20.0657 37.3242,21.1387" id="Fill-13" fill="#7A7A7A" sketch:type="MSShapeGroup"></path>
            <path d="M0,79.6504 L0,143.6504" id="Stroke-15" stroke="#545454" stroke-width="2" stroke-linecap="round" sketch:type="MSShapeGroup"></path>
            <path d="M207.5,53.1504 L207.5,79.6504" id="Stroke-17" stroke="#545454" stroke-width="2" stroke-linecap="round" sketch:type="MSShapeGroup"></path>
        </g>
    </g>
</svg>