<?xml version="1.0" encoding="UTF-8" standalone="no"?>
<svg width="36px" height="36px" viewBox="0 0 36 36" version="1.1" xmlns="http://www.w3.org/2000/svg" xmlns:xlink="http://www.w3.org/1999/xlink" xmlns:sketch="http://www.bohemiancoding.com/sketch/ns">
    <!-- Generator: Sketch 3.4.2 (15857) - http://www.bohemiancoding.com/sketch -->
    <title>Fill 400</title>
    <desc>Created with Sketch.</desc>
    <defs></defs>
    <g id="Soundcheck-" stroke="none" stroke-width="1" fill="none" fill-rule="evenodd" sketch:type="MSPage">
        <g id="Landing-page" sketch:type="MSArtboardGroup" transform="translate(-650.000000, -1360.000000)" fill="#009CDE">
            <g id="social" sketch:type="MSLayerGroup" transform="translate(389.000000, 1324.000000)">
                <g id="twitter-icon" transform="translate(261.000000, 36.000000)" sketch:type="MSShapeGroup">
                    <path d="M25.89255,14.0772 C25.90155,14.2467 25.90455,14.4162 25.90455,14.5872 C25.90455,19.8042 21.93255,25.8222 14.67105,25.8222 C12.44205,25.8222 10.36605,25.1667 8.61855,24.0462 C10.67955,24.2877 12.77655,23.7357 14.46405,22.4127 C12.73605,22.3797 11.27955,21.2382 10.77705,19.6692 C11.37105,19.7817 11.98155,19.7607 12.55905,19.6017 C10.75305,19.2402 9.39255,17.6442 9.39255,15.7332 L9.39255,15.6807 C9.92505,15.9762 10.53555,16.1532 11.18055,16.1742 C10.12155,15.4662 9.42405,14.2587 9.42405,12.8892 C9.42405,12.1662 9.61905,11.4882 9.95955,10.9032 C11.90655,13.2927 14.81505,14.8662 18.09705,15.0282 C18.02955,14.7402 17.99355,14.4372 17.99355,14.1297 C17.99355,11.9487 19.76205,10.1802 21.94305,10.1802 C23.07855,10.1802 24.10455,10.6602 24.82455,11.4282 C25.72455,11.2497 27.74955,11.0307 27.74955,11.0307 C27.22155,11.8227 26.66505,13.5192 25.89255,14.0772 M17.99955,-0.0003 C8.07405,-0.0003 -0.00045,8.0742 -0.00045,17.9997 C-0.00045,27.9252 8.07405,35.9997 17.99955,35.9997 C27.92505,35.9997 35.99955,27.9252 35.99955,17.9997 C35.99955,8.0742 27.92505,-0.0003 17.99955,-0.0003" id="Fill-400"></path>
                </g>
            </g>
        </g>
    </g>
</svg>