<?xml version="1.0" encoding="UTF-8" standalone="no"?>
<svg width="36px" height="36px" viewBox="0 0 36 36" version="1.1" xmlns="http://www.w3.org/2000/svg" xmlns:xlink="http://www.w3.org/1999/xlink" xmlns:sketch="http://www.bohemiancoding.com/sketch/ns">
    <!-- Generator: Sketch 3.4.2 (15857) - http://www.bohemiancoding.com/sketch -->
    <title>Fill 403</title>
    <desc>Created with Sketch.</desc>
    <defs></defs>
    <g id="Soundcheck-" stroke="none" stroke-width="1" fill="none" fill-rule="evenodd" sketch:type="MSPage">
        <g id="Landing-page" sketch:type="MSArtboardGroup" transform="translate(-715.000000, -1360.000000)" fill="#009CDE">
            <g id="social" sketch:type="MSLayerGroup" transform="translate(389.000000, 1324.000000)">
                <g id="facebook-icon" transform="translate(326.000000, 36.000000)" sketch:type="MSShapeGroup">
                    <path d="M23.39205,17.25 L20.24955,17.25 L20.24955,27.75 L15.74955,27.75 L15.74955,17.25 L12.74955,17.25 L12.74955,14.25 L15.74955,14.25 L15.74955,12.504 C15.74955,10.8555 16.27755,8.277 19.72455,8.277 L23.24955,8.286 L23.24955,11.745 L21.13755,11.745 C20.77155,11.745 20.24955,11.931 20.24955,12.7155 L20.24955,14.25 L23.75805,14.25 L23.39205,17.25 Z M17.99955,0 C8.07405,0 -0.00045,8.0745 -0.00045,18 C-0.00045,27.9255 8.07405,36 17.99955,36 C27.92505,36 35.99955,27.9255 35.99955,18 C35.99955,8.0745 27.92505,0 17.99955,0 L17.99955,0 Z" id="Fill-403"></path>
                </g>
            </g>
        </g>
    </g>
</svg>