<?xml version="1.0" encoding="UTF-8" standalone="no"?>
<svg width="41px" height="37px" viewBox="0 0 41 37" version="1.1" xmlns="http://www.w3.org/2000/svg" xmlns:xlink="http://www.w3.org/1999/xlink" xmlns:sketch="http://www.bohemiancoding.com/sketch/ns">
    <!-- Generator: Sketch 3.4.2 (15857) - http://www.bohemiancoding.com/sketch -->
    <title>icon</title>
    <desc>Created with Sketch.</desc>
    <defs></defs>
    <g id="Soundcheck-" stroke="none" stroke-width="1" fill="none" fill-rule="evenodd" sketch:type="MSPage">
        <g id="Landing-page" sketch:type="MSArtboardGroup" transform="translate(-680.000000, -29.000000)">
            <g id="navbar" sketch:type="MSLayerGroup" transform="translate(135.000000, 29.000000)">
                <g id="icon" transform="translate(545.000000, 0.000000)" sketch:type="MSShapeGroup">
                    <path d="M20.3995181,0.14341048 C9.15772818,0.14341048 0.0444671279,9.27996507 0.0444671279,20.5504891 C0.0444671279,26.8865109 2.92500838,32.5482707 7.44440439,36.2912664 L7.44440439,11.9141703 C7.44440439,11.7813231 7.55173268,11.6738996 7.68424115,11.6738996 L16.112637,11.6738996 C16.2392522,11.6738996 16.3442589,11.7729083 16.351938,11.8996681 C16.4821249,14.0416943 18.2600957,15.7196507 20.3993396,15.7196507 C22.538762,15.7196507 24.3167328,14.0416943 24.4469197,11.8996681 C24.4545988,11.7729083 24.5594269,11.6738996 24.6862207,11.6738996 L33.1147951,11.6738996 C33.2473036,11.6738996 33.3546319,11.7813231 33.3546319,11.9141703 L33.3546319,36.2912664 C37.8740279,32.5482707 40.7545692,26.8865109 40.7545692,20.5504891 C40.7545692,9.27996507 31.6413081,0.14341048 20.3995181,0.14341048" id="Fill-1" fill="#FFFFFF"></path>
                    <path d="M24.6862207,11.6148166 C24.5594269,11.6148166 24.4545988,11.7138253 24.4469197,11.8405852 C24.3167328,13.9826114 22.538762,15.6605677 20.3993396,15.6605677 C18.2600957,15.6605677 16.4821249,13.9826114 16.351938,11.8405852 C16.3442589,11.7138253 16.2392522,11.6148166 16.112637,11.6148166 L7.68424115,11.6148166 C7.55173268,11.6148166 7.44458297,11.7222402 7.44458297,11.8550873 L7.44458244,36.1981979 C10.9640931,39.1131368 15.4777745,40.8644992 20.3995176,40.8644992 C25.3212608,40.8644992 29.8349421,39.1131368 33.3546314,36.1981979 L33.3546319,11.8550873 C33.3546319,11.7222402 33.2473036,11.6148166 33.1147951,11.6148166 L24.6862207,11.6148166 Z" id="Fill-2" opacity="0" fill="#009CDE"></path>
                    <path d="M25.5891356,24.8945197 L18.0804413,20.5483406 C17.8054238,20.3891747 17.4936181,20.3050262 17.1784194,20.3050262 L17.1782408,20.3050262 C16.1821057,20.3052052 15.3718754,21.1176856 15.3718754,22.1161878 L15.3718754,30.8083668 C15.3718754,31.807048 16.1822843,32.6195284 17.1784194,32.6195284 C17.4934395,32.6195284 17.8054238,32.5353799 18.0804413,32.376214 L25.588957,28.0300349 C26.1459569,27.7077642 26.4918718,27.1069083 26.4918718,26.4621878 C26.4918718,25.8176463 26.1459569,25.2167904 25.5891356,24.8945197" id="white-play-btn" fill="#FFFFFF"></path>
                </g>
            </g>
        </g>
    </g>
</svg>