<?xml version="1.0" encoding="UTF-8"?>
<svg width="325px" height="60px" viewBox="0 0 325 60" version="1.1" xmlns="http://www.w3.org/2000/svg" xmlns:xlink="http://www.w3.org/1999/xlink">
    <!-- Generator: Sketch 46.2 (44496) - http://www.bohemiancoding.com/sketch -->
    <title>shortlistLogoType</title>
    <desc>Created with Sketch.</desc>
    <defs></defs>
    <g id="Logo" stroke="none" stroke-width="1" fill="none" fill-rule="evenodd">
        <g id="shortlistLogoType" fill="#FFFFFF">
            <path d="M1.72363281,37.9658203 C1.94335938,44.5820312 7.33886719,48.6103516 15.8105469,48.6103516 C24.5507812,48.6103516 30.0927734,44.2890625 30.0927734,37.453125 C30.0927734,32.0820312 27.0166016,29.0546875 19.9609375,27.5410156 L15.6884766,26.6376953 C11.6357422,25.7099609 9.92675781,24.4892578 9.92675781,22.3164062 C9.92675781,19.7041016 12.3681641,17.9707031 16.0058594,17.9707031 C19.6923828,17.9707031 22.3046875,19.7773438 22.5488281,22.7558594 L29.4580078,22.7558594 C29.3359375,16.3837891 24.1845703,12.1601562 15.9814453,12.1601562 C8.12011719,12.1601562 2.50488281,16.4570312 2.50488281,22.9511719 C2.50488281,28.1025391 5.703125,31.3984375 12.1972656,32.7900391 L16.7871094,33.7910156 C21.0351562,34.7431641 22.7197266,36.0126953 22.7197266,38.3076172 C22.7197266,40.8955078 20.0341797,42.7753906 16.1035156,42.7753906 C12.1972656,42.7753906 9.16992188,40.8710938 8.828125,37.9658203 L1.72363281,37.9658203 Z M71.2246094,48 L71.2246094,12.7705078 L63.8515625,12.7705078 L63.8515625,27.0771484 L47.9824219,27.0771484 L47.9824219,12.7705078 L40.609375,12.7705078 L40.609375,48 L47.9824219,48 L47.9824219,33.15625 L63.8515625,33.15625 L63.8515625,48 L71.2246094,48 Z M98.9775391,12.1601562 C109.402344,12.1601562 115.969727,19.1669922 115.969727,30.3974609 C115.969727,41.6035156 109.402344,48.6103516 98.9775391,48.6103516 C88.5283203,48.6103516 81.9853516,41.6035156 81.9853516,30.3974609 C81.9853516,19.1669922 88.5283203,12.1601562 98.9775391,12.1601562 Z M98.9775391,18.3125 C93.2158203,18.3125 89.5048828,23 89.5048828,30.3974609 C89.5048828,37.7705078 93.1914062,42.4335938 98.9775391,42.4335938 C104.739258,42.4335938 108.425781,37.7705078 108.425781,30.3974609 C108.425781,23 104.739258,18.3125 98.9775391,18.3125 Z M134.079102,18.5322266 L134.079102,29.7626953 L140.426758,29.7626953 C144.137695,29.7626953 146.310547,27.6386719 146.310547,24.1474609 C146.310547,20.7294922 144.015625,18.5322266 140.353516,18.5322266 L134.079102,18.5322266 Z M134.079102,35.109375 L134.079102,48 L126.706055,48 L126.706055,12.7705078 L141.134766,12.7705078 C149.240234,12.7705078 153.878906,17.0429688 153.878906,24.0009766 C153.878906,28.5175781 151.535156,32.4238281 147.482422,34.0107422 L154.904297,48 L146.554688,48 L139.987305,35.109375 L134.079102,35.109375 Z M180.508789,48 L180.508789,18.8496094 L190.713867,18.8496094 L190.713867,12.7705078 L162.955078,12.7705078 L162.955078,18.8496094 L173.135742,18.8496094 L173.135742,48 L180.508789,48 Z M223.569336,41.8964844 L208.164062,41.8964844 L208.164062,12.7705078 L200.791016,12.7705078 L200.791016,48 L223.569336,48 L223.569336,41.8964844 Z M241.3125,48 L241.3125,12.7705078 L233.939453,12.7705078 L233.939453,48 L241.3125,48 Z M251.853516,37.9658203 C252.073242,44.5820312 257.46875,48.6103516 265.94043,48.6103516 C274.680664,48.6103516 280.222656,44.2890625 280.222656,37.453125 C280.222656,32.0820312 277.146484,29.0546875 270.09082,27.5410156 L265.818359,26.6376953 C261.765625,25.7099609 260.056641,24.4892578 260.056641,22.3164062 C260.056641,19.7041016 262.498047,17.9707031 266.135742,17.9707031 C269.822266,17.9707031 272.43457,19.7773438 272.678711,22.7558594 L279.587891,22.7558594 C279.46582,16.3837891 274.314453,12.1601562 266.111328,12.1601562 C258.25,12.1601562 252.634766,16.4570312 252.634766,22.9511719 C252.634766,28.1025391 255.833008,31.3984375 262.327148,32.7900391 L266.916992,33.7910156 C271.165039,34.7431641 272.849609,36.0126953 272.849609,38.3076172 C272.849609,40.8955078 270.164062,42.7753906 266.233398,42.7753906 C262.327148,42.7753906 259.299805,40.8710938 258.958008,37.9658203 L251.853516,37.9658203 Z M306.535156,48 L306.535156,18.8496094 L316.740234,18.8496094 L316.740234,12.7705078 L288.981445,12.7705078 L288.981445,18.8496094 L299.162109,18.8496094 L299.162109,48 L306.535156,48 Z" id="SHORTLIST"></path>
        </g>
    </g>
</svg>