<?xml version="1.0" encoding="UTF-8" standalone="no"?>
<svg xmlns="http://www.w3.org/2000/svg" height="80px" width="60px" version="1.1" xmlns:xlink="http://www.w3.org/1999/xlink" viewBox="0 0 60 80"><!-- Generator: Sketch 46.2 (44496) - http://www.bohemiancoding.com/sketch -->
 <title>shortlistLogoMark</title>
 <desc>Created with Sketch.</desc>
 <g id="Logo" fill-rule="evenodd" fill="none">
  <g id="shortlistLogoMark" fill="#FEFEFE">
   <path id="mark" d="m29.143 6.6571c2.938-3.2615 7.981-3.5258 11.243-0.589l9.622 8.6639-3.202 3.555c-1.19-0.605-2.523-0.893-3.892-0.819-2.058 0.108-3.95 1.011-5.328 2.542-1.379 1.531-2.079 3.507-1.972 5.565 0.071 1.369 0.496 2.665 1.222 3.785l-3.202 3.556-9.622-8.663c-2.205-1.986-5.019-3.051-7.951-3.066l13.082-14.53zm26.778 39.547c-0.167-3.198-1.57-6.139-3.95-8.282l-5.986-5.39-2.696 2.994 5.987 5.39c1.579 1.423 2.511 3.375 2.622 5.499 0.111 2.123-0.611 4.163-2.033 5.743l-13.083 14.53c-0.322-2.926-1.675-5.601-3.881-7.587l-22.237-20.023c-1.5805-1.423-2.5121-3.376-2.6234-5.499-0.1113-2.124 0.611-4.163 2.0334-5.743 1.423-1.58 3.376-2.512 5.5-2.623 2.122-0.113 4.163 0.611 5.743 2.034l12.615 11.359 8.417-9.348-1.497-1.347c-0.731-0.66-1.163-1.563-1.214-2.547-0.052-0.982 0.283-1.927 0.942-2.658 0.658-0.732 1.563-1.163 2.545-1.215 0.997-0.054 1.928 0.283 2.659 0.942l1.497 1.348 8.417-9.348-12.616-11.359c-4.914-4.4233-12.509-4.0256-16.932 0.8874l-19.07 21.179c-2.1426 2.38-3.2307 5.452-3.0632 8.65 0.1676 3.198 1.571 6.139 3.9513 8.282l22.237 20.023c1.581 1.423 2.512 3.376 2.624 5.499 0.111 2.122-0.611 4.162-2.034 5.743-1.423 1.58-3.376 2.512-5.5 2.623-2.113 0.11-4.162-0.611-5.742-2.034l-9.6219-8.664 7.4329-8.255-2.994-2.695-10.129 11.249 12.616 11.359c2.22 1.999 5.042 3.08 8.007 3.08 0.213 0 0.428-0.005 0.643-0.017 3.197-0.167 6.139-1.571 8.282-3.951l19.069-21.178c2.143-2.38 3.231-5.452 3.063-8.65z"/>
  </g>
 </g>
</svg>
