<?xml version="1.0" encoding="UTF-8" standalone="no"?>
<svg width="153px" height="21px" viewBox="0 0 153 21" version="1.1" xmlns="http://www.w3.org/2000/svg" xmlns:xlink="http://www.w3.org/1999/xlink" xmlns:sketch="http://www.bohemiancoding.com/sketch/ns">
    <!-- Generator: Sketch 3.4.2 (15857) - http://www.bohemiancoding.com/sketch -->
    <title>soundcheck</title>
    <desc>Created with Sketch.</desc>
    <defs></defs>
    <g id="Soundcheck-" stroke="none" stroke-width="1" fill="none" fill-rule="evenodd" sketch:type="MSPage">
        <g id="Landing-page" sketch:type="MSArtboardGroup" transform="translate(-135.000000, -36.000000)" fill="#FFFFFF">
            <g id="navbar" sketch:type="MSLayerGroup" transform="translate(135.000000, 29.000000)">
                <g id="wordmark" transform="translate(0.000000, 7.000000)" sketch:type="MSShapeGroup">
                    <path d="M2.53675244,15.8766378 C2.98105461,16.2976027 3.5653998,16.6484015 4.28980552,16.9290448 C5.01421124,17.209688 5.7144596,17.3500075 6.39057161,17.3500075 C7.00873115,17.3500075 7.52063685,17.269825 7.92630406,17.1094574 C8.33197126,16.9490898 8.53480182,16.6383823 8.53480182,16.1773255 C8.53480182,15.996912 8.49133813,15.8315354 8.40440944,15.6811908 C8.31748076,15.5308462 8.15811389,15.3905267 7.92630406,15.2602281 C7.69449423,15.1299294 7.37093119,14.9946213 6.95560524,14.8542997 C6.5402793,14.7139781 6.0138857,14.5536129 5.37640867,14.3731994 C4.85483655,14.2328778 4.33810155,14.0474555 3.82618817,13.8169271 C3.3142748,13.5863988 2.86032069,13.3007483 2.46431223,12.9599672 C2.06830377,12.6191861 1.74957003,12.2082504 1.50810146,11.7271477 C1.26663288,11.246045 1.14590041,10.6847669 1.14590041,10.0432966 C1.14590041,9.38178036 1.29077938,8.7854224 1.58054167,8.25420482 C1.87030396,7.72298723 2.27113578,7.26193738 2.78304915,6.87104142 C3.29496253,6.48014547 3.90345421,6.17946078 4.60854244,5.96897834 C5.31363068,5.75849591 6.07183063,5.65325627 6.88316503,5.65325627 C8.04221419,5.65325627 9.05636698,5.78856437 9.92565385,6.05918465 C10.7949407,6.32980493 11.5966044,6.72570643 12.3306688,7.24690104 L10.5631277,10.1034341 C10.1188255,9.80274493 9.61174912,9.53212872 9.04188329,9.29157736 C8.47201746,9.051026 7.82972068,8.93075213 7.11497371,8.93075213 C6.47749667,8.93075213 6.01388396,9.02596894 5.72412167,9.21640544 C5.43435939,9.40684193 5.28948042,9.66242391 5.28948042,9.98315905 C5.28948042,10.4442158 5.58889696,10.7849918 6.18773902,11.0054972 C6.78658108,11.2260026 7.59790332,11.4765732 8.62173007,11.7572164 C10.0125891,12.1581354 11.0219126,12.7093906 11.6497308,13.4109988 C12.2775491,14.1126069 12.5914536,15.0447294 12.5914536,16.2073943 C12.5914536,16.9891862 12.4224281,17.6607154 12.0843721,18.2220019 C11.7463161,18.7832884 11.292362,19.2493496 10.7224962,19.6201996 C10.1526303,19.9910496 9.50550425,20.2666773 8.78109853,20.4470908 C8.05669281,20.6275043 7.31781006,20.7177097 6.56442811,20.7177097 C5.3474265,20.7177097 4.19805333,20.5473217 3.11627412,20.2065406 C2.03449491,19.8657595 1.15556248,19.3445728 0.479450476,18.6429646 L2.53675244,15.8766378 Z M21.8058483,16.9591135 C22.3274204,16.9591135 22.7910331,16.8538739 23.1967003,16.6433915 C23.6023675,16.432909 23.9452477,16.1472586 24.2253513,15.7864315 C24.5054548,15.4256045 24.7131147,15.0196802 24.8483371,14.5686464 C24.9835595,14.1176126 25.0511697,13.6515513 25.0511697,13.1704486 C25.0511697,12.6893459 24.9835595,12.2232846 24.8483371,11.7722508 C24.7131147,11.321217 24.5054548,10.9203041 24.2253513,10.5695001 C23.9452477,10.218696 23.6023675,9.93805695 23.1967003,9.72757451 C22.7910331,9.51709208 22.3274204,9.41185244 21.8058483,9.41185244 C21.2842762,9.41185244 20.8158342,9.51709208 20.4005082,9.72757451 C19.9851823,9.93805695 19.642302,10.218696 19.3718572,10.5695001 C19.1014124,10.9203041 18.8937526,11.321217 18.7488714,11.7722508 C18.6039903,12.2232846 18.5315508,12.6893459 18.5315508,13.1704486 C18.5315508,13.6515513 18.6039903,14.1176126 18.7488714,14.5686464 C18.8937526,15.0196802 19.1014124,15.4256045 19.3718572,15.7864315 C19.642302,16.1472586 19.9851823,16.432909 20.4005082,16.6433915 C20.8158342,16.8538739 21.2842762,16.9591135 21.8058483,16.9591135 L21.8058483,16.9591135 Z M14.5038751,13.1704486 C14.5038751,12.1280594 14.6825592,11.1508342 15.0399327,10.2387436 C15.3973062,9.32665303 15.894724,8.52983861 16.532201,7.84827643 C17.169678,7.16671425 17.9375366,6.63049322 18.8357997,6.23959727 C19.7340628,5.84870131 20.7240691,5.65325627 21.8058483,5.65325627 C22.8876275,5.65325627 23.8728045,5.84870131 24.7614088,6.23959727 C25.6500132,6.63049322 26.4130424,7.16671425 27.0505195,7.84827643 C27.6879965,8.52983861 28.1854143,9.32665303 28.5427878,10.2387436 C28.9001613,11.1508342 29.0788454,12.1280594 29.0788454,13.1704486 C29.0788454,14.2128378 28.9001613,15.1900631 28.5427878,16.1021536 C28.1854143,17.0142442 27.6879965,17.8110586 27.0505195,18.4926208 C26.4130424,19.174183 25.6500132,19.7154154 24.7614088,20.1163343 C23.8728045,20.5172533 22.8876275,20.7177097 21.8058483,20.7177097 C20.7240691,20.7177097 19.7340628,20.5172533 18.8357997,20.1163343 C17.9375366,19.7154154 17.169678,19.174183 16.532201,18.4926208 C15.894724,17.8110586 15.3973062,17.0142442 15.0399327,16.1021536 C14.6825592,15.1900631 14.5038751,14.2128378 14.5038751,13.1704486 L14.5038751,13.1704486 Z M31.5128364,6.13435658 L35.6853925,6.13435658 L35.6853925,14.2529243 C35.6853925,15.0547622 35.8737352,15.6862 36.2504261,16.1472568 C36.6271171,16.6083135 37.1824865,16.8388385 37.916551,16.8388385 C38.3415357,16.8388385 38.718221,16.7536445 39.0466182,16.5832539 C39.3750155,16.4128634 39.6551148,16.1873499 39.8869247,15.9067066 C40.1187345,15.6260634 40.2925893,15.2953102 40.4084942,14.9144372 C40.5243991,14.5335642 40.5823507,14.1426742 40.5823507,13.7417552 L40.5823507,6.13435658 L44.7259307,6.13435658 L44.7259307,20.2366094 L40.7272311,20.2366094 L40.6113268,18.7331709 C40.1670246,19.2744115 39.5826794,19.7204271 38.8582737,20.0712312 C38.133868,20.4220352 37.375668,20.5974346 36.5836511,20.5974346 C35.0189347,20.5974346 33.7826342,20.1163391 32.8747124,19.1541337 C31.9667905,18.1919283 31.5128364,16.7686874 31.5128364,14.8843685 L31.5128364,6.13435658 Z M47.8553478,6.13435658 L51.8540474,6.13435658 L51.9699517,7.66786381 C52.4142539,7.10657731 52.998599,6.65555028 53.7230048,6.31476919 C54.4474105,5.9739881 55.2056104,5.80360011 55.9976274,5.80360011 C57.5623437,5.80360011 58.8034736,6.28469561 59.7210542,7.24690104 C60.6386347,8.20910647 61.0974181,9.63234732 61.0974181,11.5166663 L61.0974181,20.2366094 L56.924862,20.2366094 L56.924862,12.1180417 C56.924862,11.3362498 56.7365194,10.7148347 56.3598284,10.253778 C55.9831374,9.79272121 55.4567438,9.56219628 54.7806318,9.56219628 C54.3170122,9.56219628 53.9113511,9.64739028 53.5636363,9.81778082 C53.2159216,9.98817137 52.9261636,10.2136849 52.6943538,10.4943281 C52.462544,10.7749714 52.2886892,11.1007131 52.1727843,11.4715631 C52.0568794,11.8424131 51.9989278,12.2383147 51.9989278,12.6592795 L51.9989278,20.2366094 L47.8553478,20.2366094 L47.8553478,6.13435658 Z M73.3543017,18.8233772 C72.929317,19.3445719 72.3836062,19.7805646 71.7171529,20.1313687 C71.0506997,20.4821728 70.2924997,20.6575722 69.4425303,20.6575722 C68.6118784,20.6575722 67.8343613,20.4871842 67.1099556,20.1464031 C66.3855498,19.805622 65.757741,19.3195151 65.2265101,18.6880678 C64.6952792,18.0566205 64.2751302,17.2948859 63.9660505,16.4028413 C63.6569707,15.5107967 63.5024331,14.503503 63.5024331,13.38093 C63.5024331,12.1180354 63.7197516,11.0105134 64.154395,10.058331 C64.5890384,9.10614852 65.1492371,8.31935692 65.8350079,7.69793258 C66.5207786,7.07650824 67.2838079,6.61044698 68.1241185,6.29973481 C68.9644291,5.98902264 69.7902393,5.83366888 70.6015737,5.83366888 C71.2583682,5.83366888 71.7702739,5.87877159 72.1373061,5.96897834 C72.5043384,6.0591851 72.8810237,6.17444757 73.2673734,6.31476919 L73.2673734,0.180740242 L77.4109534,0.180740242 L77.4109534,20.2366094 L73.5281582,20.2366094 L73.3543017,18.8233772 Z M73.2673734,10.0132278 C72.9776111,9.8328143 72.6637067,9.70251761 72.3256507,9.62233382 C71.9875947,9.54215004 71.5674457,9.50205874 71.065191,9.50205874 C70.0027293,9.50205874 69.1769192,9.87290319 68.5877358,10.6146032 C67.9985525,11.3563032 67.7039653,12.3084714 67.7039653,13.4711363 C67.7039653,14.4934796 67.9454302,15.3303853 68.4283674,15.9818785 C68.9113045,16.6333718 69.6356994,16.9591135 70.6015737,16.9591135 C71.0651933,16.9591135 71.4660252,16.8739196 71.8040812,16.703529 C72.1421372,16.5331385 72.4222365,16.3076249 72.6443876,16.0269817 C72.8665387,15.7463384 73.0259056,15.4155853 73.122493,15.0347123 C73.2190804,14.6538393 73.2673734,14.2629492 73.2673734,13.8620303 L73.2673734,10.0132278 Z M92.449541,18.3122082 C91.8506989,19.0138163 91.1118162,19.5801058 90.2328706,20.0110936 C89.353925,20.4420815 88.3349429,20.6575722 87.1758937,20.6575722 C86.0941145,20.6575722 85.1137668,20.47215 84.2348212,20.1012999 C83.3558756,19.7304499 82.6121635,19.219286 82.0036627,18.5677927 C81.3951619,17.9162994 80.9267199,17.1345193 80.5983227,16.2224287 C80.2699254,15.3103381 80.1057292,14.3130673 80.1057292,13.2305861 C80.1057292,12.2082429 80.279584,11.2460519 80.6272987,10.3439843 C80.9750135,9.44191669 81.4627727,8.6551251 82.090591,7.98358589 C82.7184093,7.31204668 83.4621213,6.78083707 84.3217494,6.38994112 C85.1813776,5.99904516 86.1327495,5.80360011 87.1758937,5.80360011 C88.3156254,5.80360011 89.3201196,6.01407939 90.1894064,6.43504427 C91.0586933,6.85600915 91.8024054,7.42731005 92.4205649,8.14896412 L90.710976,9.86288398 C90.3053088,9.34168937 89.8127203,8.93075363 89.2331957,8.63006443 C88.6536711,8.32937524 87.9679106,8.17903289 87.1758937,8.17903289 C86.4804642,8.17903289 85.8574846,8.314341 85.3069363,8.58496128 C84.7563879,8.85558156 84.2927752,9.226426 83.9160843,9.69750574 C83.5393933,10.1685855 83.2496353,10.7098179 83.0468017,11.3212193 C82.8439681,11.9326207 82.7425529,12.5690699 82.7425529,13.2305861 C82.7425529,13.8720564 82.8439681,14.4984829 83.0468017,15.1098842 C83.2496353,15.7212856 83.5393933,16.262518 83.9160843,16.7335978 C84.2927752,17.2046775 84.7563879,17.5805334 85.3069363,17.8611766 C85.8574846,18.1418199 86.4804642,18.2821394 87.1758937,18.2821394 C87.9679106,18.2821394 88.6778176,18.1267856 89.3056359,17.8160735 C89.9334542,17.5053613 90.4501892,17.0894142 90.8558564,16.5682195 L92.449541,18.3122082 Z M94.9994364,0.180740242 L97.5783079,0.180740242 L97.5783079,8.32937674 C97.7521652,8.08882538 97.9646544,7.82823199 98.2157817,7.54758874 C98.466909,7.26694548 98.7759842,7.00635209 99.1430164,6.76580073 C99.5100486,6.52524937 99.9350269,6.32479292 100.417964,6.16442534 C100.900901,6.00405777 101.451441,5.92387519 102.069601,5.92387519 C103.827492,5.92387519 105.131403,6.4550848 105.981372,7.51751997 C106.831342,8.57995513 107.25632,10.0232416 107.25632,11.8474228 L107.25632,20.2366094 L104.648472,20.2366094 L104.648472,12.0579041 C104.648472,10.7549176 104.378032,9.79773803 103.837142,9.18633667 C103.296252,8.5749353 102.533223,8.2692392 101.548031,8.2692392 C100.794649,8.2692392 100.166841,8.42960437 99.6645859,8.75033951 C99.1623313,9.07107465 98.7614994,9.4870218 98.4620784,9.99819344 C98.1626574,10.5093651 97.9453389,11.0906888 97.8101165,11.7421821 C97.6748941,12.3936753 97.6072839,13.060193 97.6072839,13.7417552 L97.6072839,20.2366094 L94.9994364,20.2366094 L94.9994364,0.180740242 Z M123.048286,18.1919331 C122.893746,18.3723466 122.661939,18.6028715 122.35286,18.8835148 C122.04378,19.164158 121.642948,19.4347743 121.150352,19.6953716 C120.657756,19.9559689 120.07824,20.1814824 119.411787,20.3719189 C118.745334,20.5623554 117.987134,20.6575722 117.137165,20.6575722 C116.09402,20.6575722 115.137819,20.4771614 114.268532,20.1163343 C113.399245,19.7555073 112.655533,19.2443433 112.037374,18.5828271 C111.419214,17.9213109 110.941114,17.1295078 110.603058,16.2073943 C110.265002,15.2852808 110.095976,14.2629528 110.095976,13.1403798 C110.095976,12.1180366 110.260172,11.160857 110.58857,10.2688124 C110.916967,9.37676774 111.38058,8.60501038 111.979422,7.95351712 C112.578264,7.30202386 113.288171,6.78584848 114.109164,6.4049755 C114.930157,6.02410252 115.833236,5.83366888 116.818428,5.83366888 C117.977477,5.83366888 118.972312,6.06419381 119.802964,6.52525058 C120.633616,6.98630735 121.314547,7.59769954 121.845778,8.35944551 C122.377009,9.12119147 122.768182,9.99317707 123.01931,10.9754284 C123.270437,11.9576798 123.395999,12.9800078 123.395999,14.0424429 L112.761776,14.0424429 C112.781093,14.6638673 112.911484,15.2351682 113.152953,15.7563628 C113.394422,16.2775574 113.717985,16.7285844 114.123652,17.1094574 C114.529319,17.4903304 114.992932,17.7910151 115.514504,18.0115205 C116.036076,18.2320259 116.586616,18.3422769 117.166141,18.3422769 C118.305872,18.3422769 119.242756,18.1418205 119.976821,17.7409015 C120.710885,17.3399826 121.242108,16.9490925 121.570505,16.5682195 L123.048286,18.1919331 Z M120.701223,12.0278354 C120.623953,10.9453543 120.256926,10.0232546 119.600132,9.26150859 C118.943337,8.49976262 118.016112,8.11889535 116.818428,8.11889535 C116.200268,8.11889535 115.644899,8.22914641 115.152303,8.44965182 C114.659707,8.67015723 114.239558,8.96081909 113.891843,9.32164613 C113.544128,9.68247316 113.273688,10.0984203 113.080513,10.5695001 C112.887338,11.0405798 112.781093,11.5266867 112.761776,12.0278354 L120.701223,12.0278354 Z M137.999945,18.3122082 C137.401103,19.0138163 136.66222,19.5801058 135.783275,20.0110936 C134.904329,20.4420815 133.885347,20.6575722 132.726298,20.6575722 C131.644519,20.6575722 130.664171,20.47215 129.785225,20.1012999 C128.90628,19.7304499 128.162568,19.219286 127.554067,18.5677927 C126.945566,17.9162994 126.477124,17.1345193 126.148727,16.2224287 C125.820329,15.3103381 125.656133,14.3130673 125.656133,13.2305861 C125.656133,12.2082429 125.829988,11.2460519 126.177703,10.3439843 C126.525417,9.44191669 127.013177,8.6551251 127.640995,7.98358589 C128.268813,7.31204668 129.012525,6.78083707 129.872153,6.38994112 C130.731782,5.99904516 131.683153,5.80360011 132.726298,5.80360011 C133.866029,5.80360011 134.870524,6.01407939 135.73981,6.43504427 C136.609097,6.85600915 137.352809,7.42731005 137.970969,8.14896412 L136.26138,9.86288398 C135.855713,9.34168937 135.363124,8.93075363 134.7836,8.63006443 C134.204075,8.32937524 133.518315,8.17903289 132.726298,8.17903289 C132.030868,8.17903289 131.407889,8.314341 130.85734,8.58496128 C130.306792,8.85558156 129.843179,9.226426 129.466488,9.69750574 C129.089797,10.1685855 128.800039,10.7098179 128.597206,11.3212193 C128.394372,11.9326207 128.292957,12.5690699 128.292957,13.2305861 C128.292957,13.8720564 128.394372,14.4984829 128.597206,15.1098842 C128.800039,15.7212856 129.089797,16.262518 129.466488,16.7335978 C129.843179,17.2046775 130.306792,17.5805334 130.85734,17.8611766 C131.407889,18.1418199 132.030868,18.2821394 132.726298,18.2821394 C133.518315,18.2821394 134.228222,18.1267856 134.85604,17.8160735 C135.483858,17.5053613 136.000593,17.0894142 136.40626,16.5682195 L137.999945,18.3122082 Z M140.54984,0.180740242 L143.157688,0.180740242 L143.157688,11.9977666 L148.808024,6.25463165 L151.937441,6.25463165 L146.837651,11.42646 L152.69082,20.2366094 L149.590379,20.2366094 L145.012157,13.2305861 L143.157688,15.0948498 L143.157688,20.2366094 L140.54984,20.2366094 L140.54984,0.180740242 Z" id="soundcheck"></path>
                </g>
            </g>
        </g>
    </g>
</svg>