<?xml version="1.0" encoding="UTF-8" standalone="no"?>
<svg width="177px" height="59px" viewBox="0 0 177 59" version="1.1" xmlns="http://www.w3.org/2000/svg" xmlns:xlink="http://www.w3.org/1999/xlink" xmlns:sketch="http://www.bohemiancoding.com/sketch/ns">
    <!-- Generator: Sketch 3.4.2 (15857) - http://www.bohemiancoding.com/sketch -->
    <title>tms logo</title>
    <desc>Created with Sketch.</desc>
    <defs></defs>
    <g id="Soundcheck-" stroke="none" stroke-width="1" fill="none" fill-rule="evenodd" sketch:type="MSPage">
        <g id="Landing-page" sketch:type="MSArtboardGroup" transform="translate(-612.000000, -1472.000000)">
            <g id="footer-bg-+-tms-logo" sketch:type="MSLayerGroup" transform="translate(1.000000, 1451.000000)">
                <g id="tms-logo" transform="translate(611.000000, 21.000000)">
                    <g id="Logo" transform="translate(42.000000, 13.000000)" fill="#FFFFFF" sketch:type="MSShapeGroup">
                        <path d="M6.62171053,25.5135135 L4.81578947,25.0810811 C4.51480263,25.0810811 4.36430921,24.9369369 4.21381579,24.7927928 C4.06332237,24.6486486 4.06332237,24.5045045 4.06332237,24.3603604 C4.06332237,24.2162162 4.21381579,23.9279279 4.36430921,23.9279279 C4.51480263,23.7837838 4.81578947,23.7837838 5.11677632,23.7837838 C5.86924342,23.7837838 6.32072368,24.0720721 6.47121711,24.7927928 L9.63157895,24.7927928 C9.63157895,24.0720721 9.33059211,23.4954955 9.02960526,23.0630631 C8.72861842,22.4864865 8.27713816,22.1981982 7.67516447,21.9099099 C6.77220395,21.4774775 5.86924342,21.3333333 4.81578947,21.3333333 C3.46134868,21.3333333 2.40789474,21.6216216 1.65542763,22.1981982 C0.902960526,22.7747748 0.451480263,23.6396396 0.451480263,24.6486486 C0.451480263,25.3693694 0.752467105,26.0900901 1.20394737,26.5225225 C1.65542763,26.954955 2.55838816,27.3873874 3.61184211,27.6756757 L5.41776316,28.1081081 C6.01973684,28.2522523 6.17023026,28.3963964 6.17023026,28.6846847 C6.17023026,29.1171171 5.71875,29.2612613 4.96628289,29.2612613 C3.91282895,29.2612613 3.31085526,28.8288288 3.16036184,28.1081081 L0,28.1081081 C0.150493421,28.8288288 0.300986842,29.4054054 0.601973684,29.8378378 C0.902960526,30.2702703 1.35444079,30.7027027 1.80592105,30.990991 C2.70888158,31.7117117 3.91282895,32 5.11677632,32 L5.11677632,32 C6.47121711,32 7.52467105,31.7117117 8.27713816,31.1351351 C9.02960526,30.5585586 9.63157895,29.6936937 9.63157895,28.6846847 C9.63157895,27.8198198 9.33059211,27.0990991 8.87911184,26.6666667 C8.42763158,26.0900901 7.52467105,25.8018018 6.62171053,25.5135135 L6.62171053,25.5135135 L6.62171053,25.5135135 Z" id="Shape"></path>
                        <path d="M10.3450292,24.0926448 L13.6558845,24.0926448 L13.6558845,31.6444444 L16.8162463,31.6444444 L16.8162463,24.0926448 L19.9766082,24.0926448 L19.9766082,21.3333333 L10.3450292,21.3333333 L10.3450292,24.0926448 L10.3450292,24.0926448 Z" id="Shape"></path>
                        <path d="M28.5537496,26.739726 C28.5537496,27.4703196 28.4016168,28.0547945 28.0973512,28.347032 C27.7930857,28.7853881 27.3366873,28.9315068 26.5760234,28.9315068 C25.8153595,28.9315068 25.5110939,28.7853881 25.0546956,28.347032 C24.75043,27.9086758 24.5982972,27.4703196 24.5982972,26.739726 L24.5982972,21.3333333 L21.4035088,21.3333333 L21.4035088,26.739726 C21.4035088,28.4931507 21.8599071,29.6621005 22.7727038,30.6849315 C23.6855005,31.5616438 24.9025628,32 26.5760234,32 C28.249484,32 29.4665463,31.5616438 30.379343,30.6849315 C31.2921397,29.8082192 31.748538,28.4931507 31.748538,26.739726 L31.748538,21.3333333 L28.5537496,21.3333333 L28.5537496,26.739726 L28.5537496,26.739726 Z" id="Shape"></path>
                        <path d="M37.6732774,21.3333333 L33.1754386,21.3333333 L33.1754386,31.6444444 L37.6732774,31.6444444 C39.4724129,31.6444444 40.8217646,31.2087637 41.8712603,30.1921753 C42.920756,29.3208138 43.5204678,28.0137715 43.5204678,26.4162754 C43.5204678,24.8187793 42.920756,23.656964 41.8712603,22.6403756 C40.8217646,21.914241 39.4724129,21.3333333 37.6732774,21.3333333 L37.6732774,21.3333333 L37.6732774,21.3333333 Z M39.4724129,28.3042254 C39.022629,28.7399061 38.4229172,29.0303599 37.6732774,29.0303599 L36.3239258,29.0303599 L36.3239258,24.0926448 L37.6732774,24.0926448 C38.4229172,24.0926448 39.022629,24.3830986 39.4724129,24.8187793 C39.9221968,25.2544601 40.2220527,25.8353678 40.2220527,26.5615023 C40.2220527,27.2876369 40.0721248,27.8685446 39.4724129,28.3042254 L39.4724129,28.3042254 L39.4724129,28.3042254 Z" id="Shape"></path>
                        <rect id="Rectangle-path" x="44.9473684" y="21.3333333" width="3.21052632" height="10.3111111"></rect>
                        <path d="M59.3182957,22.5730994 C58.2481203,21.5578947 56.8721805,20.9777778 55.037594,20.9777778 C53.3558897,20.9777778 51.9799499,21.4128655 50.9097744,22.5730994 C49.839599,23.5883041 49.2280702,24.8935673 49.2280702,26.4888889 C49.2280702,28.0842105 49.839599,29.2444444 50.9097744,30.4046784 C51.9799499,31.419883 53.3558897,32 55.037594,32 C56.7192982,32 58.0952381,31.5649123 59.3182957,30.4046784 C60.3884712,29.3894737 61,28.0842105 61,26.4888889 C61,24.8935673 60.3884712,23.5883041 59.3182957,22.5730994 L59.3182957,22.5730994 L59.3182957,22.5730994 Z M57.0250627,28.2292398 C56.566416,28.6643275 55.9548872,28.954386 55.1904762,28.954386 C54.4260652,28.954386 53.8145363,28.6643275 53.3558897,28.2292398 C52.8972431,27.794152 52.5914787,27.2140351 52.5914787,26.4888889 C52.5914787,25.7637427 52.8972431,25.1836257 53.3558897,24.748538 C53.8145363,24.3134503 54.4260652,24.0233918 55.1904762,24.0233918 C55.9548872,24.0233918 56.566416,24.3134503 57.0250627,24.748538 C57.4837093,25.1836257 57.7894737,25.7637427 57.7894737,26.4888889 C57.7894737,27.2140351 57.4837093,27.794152 57.0250627,28.2292398 L57.0250627,28.2292398 L57.0250627,28.2292398 Z" id="Shape"></path>
                        <path d="M12.4853801,19.2 L12.4853801,8.88888889 L10.0289437,8.88888889 L6.49781627,13.6813772 L2.8131616,8.88888889 L0.356725146,8.88888889 L0.356725146,19.2 L3.58079799,19.2 L3.58079799,14.5527387 L5.5766526,17.457277 L7.26545266,17.457277 L9.26130728,14.5527387 L9.26130728,19.2 L12.4853801,19.2 L12.4853801,19.2 Z" id="Shape"></path>
                        <path d="M19.3650794,8.53333333 C17.6833751,8.53333333 16.3074353,8.97422222 15.2372598,10.1499259 C14.0142022,11.1786667 13.5555556,12.5013333 13.5555556,13.970963 C13.5555556,15.4405926 14.1670844,16.7632593 15.2372598,17.938963 C16.3074353,18.9677037 17.6833751,19.5555556 19.3650794,19.5555556 C21.0467836,19.5555556 22.4227235,19.1146667 23.6457811,17.938963 C24.7159566,16.9102222 25.3274854,15.5875556 25.3274854,13.970963 C25.3274854,12.3543704 24.7159566,11.1786667 23.6457811,10.002963 C22.4227235,9.12118519 21.0467836,8.53333333 19.3650794,8.53333333 L19.3650794,8.53333333 L19.3650794,8.53333333 Z M21.1996658,15.8814815 C20.7410192,16.3223704 20.1294904,16.6162963 19.3650794,16.6162963 C18.6006683,16.6162963 17.9891395,16.3223704 17.5304929,15.8814815 C17.0718463,15.4405926 16.7660819,14.8527407 16.7660819,14.1179259 C16.7660819,13.3831111 17.0718463,12.7952593 17.5304929,12.3543704 C17.9891395,11.9134815 18.6006683,11.6195556 19.3650794,11.6195556 C20.1294904,11.6195556 20.7410192,11.9134815 21.1996658,12.3543704 C21.6583124,12.7952593 21.9640769,13.3831111 21.9640769,14.1179259 C21.9640769,14.8527407 21.6583124,15.2936296 21.1996658,15.8814815 L21.1996658,15.8814815 L21.1996658,15.8814815 Z" id="Shape"></path>
                        <path d="M36.0292398,16.2954617 C36.0292398,15.714554 35.8787463,15.2788732 35.5777595,14.6979656 C35.2767727,14.2622848 34.8252924,13.971831 34.0728253,13.8266041 C34.5243056,13.6813772 34.8252924,13.3909233 35.1262792,12.9552426 C35.4272661,12.5195618 35.5777595,12.0838811 35.5777595,11.6482003 C35.5777595,10.7768388 35.2767727,10.1959311 34.5243056,9.61502347 C33.9223319,9.17934272 33.0193713,8.88888889 31.815424,8.88888889 L31.815424,8.88888889 L26.3976608,8.88888889 L26.3976608,19.2 L32.2669042,19.2 C33.4708516,19.2 34.3738121,18.9095462 35.1262792,18.4738654 C35.7282529,17.8929577 36.0292398,17.1668232 36.0292398,16.2954617 L36.0292398,16.2954617 L36.0292398,16.2954617 Z M29.5580227,11.2125196 L31.2134503,11.2125196 C32.1164108,11.2125196 32.4173977,11.5029734 32.4173977,11.9386541 C32.4173977,12.229108 32.2669042,12.3743349 32.1164108,12.5195618 C31.9659174,12.6647887 31.6649306,12.6647887 31.2134503,12.6647887 L29.5580227,12.6647887 L29.5580227,11.2125196 L29.5580227,11.2125196 Z M31.5144371,16.7311424 L29.4075292,16.7311424 L29.4075292,14.9884194 L31.5144371,14.9884194 C32.4173977,14.9884194 32.8688779,15.2788732 32.8688779,15.714554 C32.8688779,16.4406886 32.4173977,16.7311424 31.5144371,16.7311424 L31.5144371,16.7311424 L31.5144371,16.7311424 Z" id="Shape"></path>
                        <rect id="Rectangle-path" x="37.8128655" y="8.88888889" width="3.21052632" height="10.3111111"></rect>
                        <path d="M42.8070175,8.88888889 L42.8070175,19.2 L51.3684211,19.2 L51.3684211,16.5859155 L46.0759171,16.5859155 L46.0759171,8.88888889 L42.8070175,8.88888889 L42.8070175,8.88888889 Z" id="Shape"></path>
                        <path d="M61,16.5859155 L55.707496,16.5859155 L55.707496,15.2788732 L60.2216906,15.2788732 L60.2216906,12.8100156 L55.707496,12.8100156 L55.707496,11.3577465 L61,11.3577465 L61,8.88888889 L52.4385965,8.88888889 L52.4385965,19.2 L61,19.2 L61,16.5859155 L61,16.5859155 Z" id="Shape"></path>
                        <path d="M32.0375156,5.95039431 L32.0194502,5.95039431 C31.5981396,6.46356373 31.1768289,6.75555556 30.4984091,6.75555556 C29.6448194,6.75555556 29.0412419,6.29604277 29.0412419,5.45375862 C29.0412419,3.94607001 30.7816486,3.83095785 31.9378335,3.83095785 L32.3672091,3.83095785 C32.405598,3.70648697 32.405598,3.5739052 32.405598,3.44007561 C32.405598,2.98056282 31.8904118,2.84798106 31.4613589,2.84798106 C30.9177842,2.84798106 30.3974364,2.98056282 29.9109613,3.20049257 L30.0845182,2.25401476 C30.6074466,2.07713509 31.1397304,1.9788686 31.6891118,1.9788686 C32.6346413,1.9788686 33.5214583,2.31609422 33.5214583,3.38766682 C33.5214583,4.00035055 33.0546616,5.79036033 32.9456241,6.65073798 L31.909445,6.65073798 L32.0375156,5.95039431 L32.0375156,5.95039431 Z M30.8351996,5.88893876 C31.7542762,5.88893876 32.0375156,5.27750287 32.2294605,4.54222001 L31.8000849,4.54222001 C31.2029593,4.54222001 30.2148469,4.63955062 30.2148469,5.41008464 C30.2148469,5.72765696 30.5271201,5.88893876 30.8351996,5.88893876 L30.8351996,5.88893876 Z M0.196461106,2.08034824 L1.08327815,2.08034824 L1.29457868,1.14229328 L2.61464246,0.724894696 L2.31333757,2.08034824 L3.41145516,2.08034824 L3.219833,2.94883679 L2.11816686,2.94883679 L1.67040329,4.94380237 C1.64201482,5.05080365 1.61556193,5.20927786 1.61556193,5.38834123 C1.61556193,5.66255151 1.80815188,5.83069638 2.08429425,5.83069638 C2.3026919,5.83069638 2.52367033,5.78577456 2.67819392,5.72650272 L2.46882897,6.64490439 C2.25591545,6.69076207 2.01848462,6.75128175 1.80815188,6.75128175 C0.97520841,6.75128175 0.387115478,6.43620509 0.387115478,5.55617414 C0.387115478,5.2024148 0.460990015,4.85645438 0.542929459,4.49271242 L0.891333389,2.94883679 L0,2.94883679 L0.196461106,2.08034824 L0.196461106,2.08034824 Z M3.91660859,2.08016107 L5.14247428,2.08016107 L4.13726442,6.64502916 L2.90785017,6.64502916 L3.91660859,2.08016107 L3.91660859,2.08016107 Z M4.36695294,0.112647704 L5.59314122,0.112647704 L5.33796759,1.24817151 L4.10823075,1.24817151 L4.36695294,0.112647704 L4.36695294,0.112647704 Z M8.85658922,3.12690188 C8.61657763,2.97716248 8.29462659,2.8963656 7.95590054,2.8963656 C6.97520799,2.8963656 6.42389103,3.78388351 6.42389103,4.64270139 C6.42389103,5.23635573 6.62841705,5.83094594 7.47136099,5.83094594 C7.77202069,5.83094594 8.14816789,5.75077297 8.46947374,5.59978574 L8.33269294,6.54033636 C7.95590054,6.71721604 7.55265524,6.75121936 7.15037774,6.75121936 C5.93031879,6.75121936 5.1418936,5.96415162 5.1418936,4.78557774 C5.1418936,3.18898135 6.23226887,1.97515632 7.92718946,1.97515632 C8.38495353,1.97515632 8.82626517,2.05283363 9.15789409,2.15328381 L8.85658922,3.12690188 L8.85658922,3.12690188 Z M10.2005251,-4.4408921e-16 L11.4296168,-4.4408921e-16 L10.6134483,3.73942964 L10.6331267,3.73942964 L12.3454675,2.08044183 L13.9407058,2.08044183 L11.6770481,4.1643152 L13.0974393,6.64499797 L11.7151144,6.64499797 L10.4937651,4.22639465 L10.4769901,4.22639465 L9.94567409,6.64499797 L8.74529352,6.64499797 L10.2005251,-4.4408921e-16 L10.2005251,-4.4408921e-16 Z M18.3702102,2.08034824 L19.2583175,2.08034824 L19.4699408,1.14229328 L20.7900045,0.724894696 L20.4864415,2.08034824 L21.5871398,2.08034824 L21.396808,2.94883679 L20.2941742,2.94883679 L19.8438298,4.94380237 C19.8186673,5.05080365 19.7902789,5.20927786 19.7902789,5.38834123 C19.7902789,5.66255151 19.9828688,5.83069638 20.2577208,5.83069638 C20.4764411,5.83069638 20.6964516,5.78577456 20.8522657,5.72650272 L20.6419329,6.64490439 C20.4322453,6.69076207 20.1932014,6.75128175 19.9828688,6.75128175 C19.1486349,6.75128175 18.5624776,6.43620509 18.5624776,5.55617414 C18.5624776,5.2024148 18.6353843,4.85645438 18.7173237,4.49271242 L19.0663728,2.94883679 L18.175362,2.94883679 L18.3702102,2.08034824 L18.3702102,2.08034824 Z M17.9581902,3.71200861 C17.9581902,2.54996844 17.1900886,1.97534349 16.0242259,1.97534349 C14.4757639,1.97534349 13.3373218,3.34046772 13.3373218,4.75862465 C13.3373218,6.11532602 14.2531725,6.75109458 15.6119479,6.75109458 C16.1158432,6.75109458 16.6378039,6.63723023 17.1136333,6.49653758 L17.2704151,5.55629892 C16.8116832,5.76125472 16.3264986,5.88322995 15.8222806,5.88322995 C15.0367588,5.88322995 14.5789947,5.61494686 14.5180241,4.89650967 L14.5170563,4.89650967 C14.5170563,4.85501939 14.5102817,4.81352909 14.5102817,4.76985509 L14.5102817,4.74458658 L14.5102817,4.72898872 L14.5141529,4.72898872 C14.5170563,4.41952728 14.5880274,4.11162563 14.7131948,3.82712077 C14.9483674,3.24469688 15.2825772,2.8447679 16.0061605,2.8447679 C16.5187659,2.8447679 16.7845853,3.11866623 16.7845853,3.60563125 C16.7845853,3.71200861 16.7755526,3.80965118 16.7578097,3.91696442 L15.0770833,3.91696442 C14.9664328,4.27446725 14.9483674,4.51405028 14.9464319,4.72898872 L17.8391522,4.72898872 C17.9114138,4.39425876 17.9581902,4.05765706 17.9581902,3.71200861 L17.9581902,3.71200861 Z M22.1181977,2.58609308 C22.152393,2.40796559 22.1894914,2.22515873 22.2175573,2.08009867 L23.3637418,2.08009867 L23.2530912,2.69184653 L23.2711566,2.69184653 C23.6027855,2.22515873 24.1411987,1.97496915 24.7205815,1.97496915 C25.2783503,1.97496915 25.857088,2.29410124 25.920317,2.8447055 L25.9387049,2.8447055 C26.2490425,2.24980334 26.938108,1.97496915 27.5974948,1.97496915 C28.3039805,1.97496915 28.9098161,2.53399625 28.9098161,3.22591708 C28.9098161,3.63177324 28.8011013,4.09284582 28.6994835,4.46501062 L28.2042982,6.64496678 L26.9748841,6.64496678 L27.469424,4.42133664 C27.5329754,4.14556657 27.6245928,3.72192885 27.6245928,3.44678269 C27.6245928,3.10893316 27.3610317,2.89617843 27.048436,2.89617843 C26.1971045,2.89617843 25.9851587,3.85326278 25.8290222,4.47530522 L25.3431923,6.64496678 L24.1160362,6.64496678 L24.608318,4.42133664 C24.6747728,4.14556657 24.765745,3.72192885 24.765745,3.44678269 C24.765745,3.10893316 24.499603,2.89617843 24.1882978,2.89617843 C23.3563221,2.89617843 23.1234075,3.86168562 22.968884,4.47530522 L22.4840219,6.64496678 L21.2539625,6.64496678 L22.1181977,2.58609308 L22.1181977,2.58609308 Z M37.1713767,3.01129059 C37.0387896,2.94203611 36.7000636,2.8447055 36.3503693,2.8447055 C35.9861581,2.8447055 35.5290393,2.94203611 35.5290393,3.30390634 C35.5290393,3.88071501 37.1236324,4.09284582 37.1236324,5.20934025 C37.1236324,6.39727285 36.0490644,6.75134413 34.9925618,6.75134413 C34.5022154,6.75134413 34.0041269,6.68240162 33.5566859,6.47806973 L33.82186,5.52940822 C34.1696187,5.71658248 34.5167322,5.88316755 34.9925618,5.88316755 C35.4070978,5.88316755 35.8387317,5.75089775 35.8387317,5.37998078 C35.8387317,4.64251422 34.2422029,4.57232387 34.2422029,3.42993701 C34.2422029,2.3555568 35.3154805,1.97528109 36.2903663,1.97528109 C36.7371622,1.97528109 37.1962165,2.05295841 37.4381638,2.11659766 L37.1713767,3.01129059 L37.1713767,3.01129059 Z M37.956221,2.08034824 L38.8472319,2.08034824 L39.0559517,1.14229328 L40.3760154,0.724894696 L40.07342,2.08034824 L41.1747637,2.08034824 L40.9815285,2.94883679 L39.878572,2.94883679 L39.4324214,4.94380237 C39.4030651,5.05080365 39.375967,5.20927786 39.375967,5.38834123 C39.375967,5.66255151 39.5711378,5.83069638 39.8453445,5.83069638 C40.063097,5.83069638 40.2843981,5.78577456 40.4398894,5.72650272 L40.2308471,6.64490439 C40.0169657,6.69076207 39.7798575,6.75128175 39.5711378,6.75128175 C38.7362587,6.75128175 38.1501014,6.43620509 38.1501014,5.55617414 C38.1501014,5.2024148 38.2223629,4.85645438 38.3023667,4.49271242 L38.6514159,2.94883679 L37.7636311,2.94883679 L37.956221,2.08034824 L37.956221,2.08034824 Z M46.2843009,2.69184653 C46.3230124,2.49656139 46.3581754,2.29410124 46.393661,2.08041064 L47.5666208,2.08041064 L47.4004838,2.94203611 L47.4220977,2.94203611 C47.6401728,2.4441526 48.2460086,1.97528109 48.8141005,1.97528109 C48.9712049,1.97528109 49.1347612,1.98432785 49.2799295,2.01833118 L49.0237881,3.18037134 C48.8876525,3.13576146 48.7140956,3.10893316 48.557959,3.10893316 C47.6872718,3.10893316 47.2646709,3.86168562 47.1072438,4.59884022 L46.670126,6.64496678 L45.4397439,6.64496678 L46.2843009,2.69184653 L46.2843009,2.69184653 Z M45.4317758,3.71200861 C45.4317758,2.54996844 44.6617385,1.97534349 43.4974888,1.97534349 C41.9477364,1.97534349 40.8118752,3.34046772 40.8118752,4.75862465 C40.8118752,6.11532602 41.729984,6.75109458 43.0842429,6.75109458 C43.5881384,6.75109458 44.1113894,6.63723023 44.5885093,6.49653758 L44.7417424,5.55629892 C44.2865592,5.76125472 43.8007293,5.88322995 43.2961887,5.88322995 C42.5077635,5.88322995 42.0512898,5.61494686 41.9935452,4.89650967 L41.9912869,4.89650967 C41.9880611,4.85501939 41.9851576,4.81352909 41.9851576,4.76985509 C41.9851576,4.76205618 41.9861255,4.75425725 41.9861255,4.74458658 L41.9861255,4.72898872 C41.9912869,4.41952728 42.0622581,4.11162563 42.1874254,3.82712077 C42.4209852,3.24469688 42.7545496,2.8447679 43.4800685,2.8447679 C43.9939644,2.8447679 44.2591385,3.11866623 44.2591385,3.60563125 C44.2591385,3.71200861 44.2468798,3.80965118 44.2301048,3.91696442 L42.5522818,3.91696442 C42.4400184,4.27446725 42.4209852,4.51405028 42.4193722,4.72898872 L45.3130604,4.72898872 C45.3872576,4.39425876 45.4317758,4.05765706 45.4317758,3.71200861 L45.4317758,3.71200861 Z M51.0182715,1.81081731 C51.6018481,1.81081731 52.0818713,2.26877033 52.0818713,2.83497245 C52.0818713,3.40242238 51.6018481,3.86099931 51.0182715,3.86099931 C50.4330819,3.86099931 49.9575751,3.40242238 49.9575751,2.83497245 C49.9575751,2.26877033 50.4330819,1.81081731 51.0182715,1.81081731 L51.0182715,1.81081731 Z M51.0227879,3.70751642 C51.5089403,3.70751642 51.878313,3.32880052 51.878313,2.83497245 C51.878313,2.34301612 51.5089403,1.96180456 51.0227879,1.96180456 C50.5282478,1.96180456 50.1598429,2.34301612 50.1598429,2.83497245 C50.1598429,3.32880052 50.5282478,3.70751642 51.0227879,3.70751642 L51.0227879,3.70751642 L51.0227879,3.70751642 Z M50.6114777,2.23164743 L51.0889201,2.23164743 C51.3776437,2.23164743 51.5150697,2.34301612 51.5150697,2.57012087 C51.5150697,2.76415819 51.3892572,2.90391496 51.1953768,2.90391496 L51.5492649,3.4336181 L51.3353836,3.4336181 L50.9853668,2.90391496 L50.8163262,2.90391496 L50.8163262,3.4336181 L50.6114777,3.4336181 L50.6114777,2.23164743 L50.6114777,2.23164743 Z M50.8163262,2.75167991 L51.0556927,2.75167991 C51.2121518,2.75167991 51.3134471,2.71798854 51.3134471,2.56356977 C51.3134471,2.42662061 51.1882797,2.38606619 51.0556927,2.38606619 L50.8163262,2.38606619 L50.8163262,2.75167991 L50.8163262,2.75167991 Z" id="Fill-2"></path>
                    </g>
                    <text id="A" sketch:type="MSTextLayer" font-family="Roboto" font-size="12" font-weight="normal" line-spacing="36" fill="#FFFFFF">
                        <tspan x="22" y="32">A</tspan>
                    </text>
                    <text id="Product" sketch:type="MSTextLayer" font-family="Roboto" font-size="12" font-weight="normal" line-spacing="36" fill="#FFFFFF">
                        <tspan x="113" y="32">Product</tspan>
                    </text>
                    <rect id="Rectangle-68" stroke="#FFFFFF" opacity="0.30573694" sketch:type="MSShapeGroup" x="0" y="0" width="177" height="59" rx="2"></rect>
                </g>
            </g>
        </g>
    </g>
</svg>